<svg xmlns="http://www.w3.org/2000/svg" viewBox="0 0 44 38.75" x="0px" y="0px"><title>Compare 3</title><g data-name="Слой 2"><g data-name="Your Icon"><path d="M18.18,3.93A15.53,15.53,0,0,0,16,6.33a1,1,0,0,0,1.61,1.19,13.58,13.58,0,0,1,1.9-2.09,1,1,0,1,0-1.33-1.49Z"/><path d="M21.3,3.91a1,1,0,0,0,.5-.13,13.46,13.46,0,0,1,2.58-1.14,1,1,0,1,0-.61-1.9,15.31,15.31,0,0,0-3,1.31,1,1,0,0,0,.5,1.87Z"/><path d="M13,15.5a15.45,15.45,0,0,0,.32,3.14,1,1,0,0,0,1,.8l.2,0a1,1,0,0,0,.78-1.18A13.63,13.63,0,0,1,15,15.43a1,1,0,0,0-1-1h0A1,1,0,0,0,13,15.5Z"/><path d="M14.33,13.42a1,1,0,0,0,1-.79,13.57,13.57,0,0,1,.88-2.68,1,1,0,1,0-1.82-.82,15.62,15.62,0,0,0-1,3.08,1,1,0,0,0,.77,1.19Z"/><path d="M40.85,10.06a13.44,13.44,0,0,1,.86,2.69,1,1,0,0,0,1,.8l.2,0a1,1,0,0,0,.78-1.18,15.43,15.43,0,0,0-1-3.09,1,1,0,0,0-1.83.81Z"/><path d="M27.14,2.07a13.65,13.65,0,0,1,2.82,0h.11a1,1,0,0,0,.11-2,15.81,15.81,0,0,0-3.24,0A1,1,0,0,0,26,1.17,1,1,0,0,0,27.14,2.07Z"/><path d="M38.58,6.53a13.61,13.61,0,0,1,.87,1.08,1,1,0,1,0,1.62-1.17c-.3-.42-.64-.84-1-1.24A15.91,15.91,0,0,0,38.92,4a1,1,0,0,0-1.35,1.48A13.37,13.37,0,0,1,38.58,6.53Z"/><path d="M32.72,2.68A13.49,13.49,0,0,1,35.3,3.84a1,1,0,0,0,1-1.73,15.49,15.49,0,0,0-3-1.33,1,1,0,1,0-.62,1.9Z"/><path d="M21.68,27.16a13.48,13.48,0,0,1-2.27-1.67A1,1,0,0,0,18.06,27a15.39,15.39,0,0,0,2.61,1.92,1,1,0,0,0,1-1.73Z"/><path d="M42.13,20.54a1,1,0,0,0-1.32.5,13.4,13.4,0,0,1-1.42,2.44A1,1,0,1,0,41,24.66a15.45,15.45,0,0,0,1.63-2.8A1,1,0,0,0,42.13,20.54Z"/><path d="M27,28.92a13.65,13.65,0,0,1-2.76-.6,1,1,0,1,0-.62,1.9,15.69,15.69,0,0,0,3.16.69h.11a1,1,0,0,0,.11-2Z"/><path d="M37.47,25.59a13.62,13.62,0,0,1-2.29,1.65,1,1,0,1,0,1,1.74,15.68,15.68,0,0,0,2.66-1.92l-.66-.75.67.74a1,1,0,0,0,.06-1.4A1,1,0,0,0,37.47,25.59Z"/><path d="M43,14.56h0a1,1,0,0,0-1,1,13.62,13.62,0,0,1-.3,2.81,1,1,0,0,0,.77,1.19l.21,0a1,1,0,0,0,1-.79A15.58,15.58,0,0,0,44,15.56,1,1,0,0,0,43,14.56Z"/><path d="M32.59,28.37a13.47,13.47,0,0,1-2.76.57,1,1,0,0,0,.1,2H30a15.43,15.43,0,0,0,3.17-.65,1,1,0,1,0-.61-1.91Z"/><path d="M15.91,24.55a1,1,0,1,0,1.62-1.17,13.4,13.4,0,0,1-1.4-2.45,1,1,0,0,0-1.83.8A15.48,15.48,0,0,0,15.91,24.55Z"/><path d="M16.9,28.93a13.71,13.71,0,0,1-1.4.07A13.5,13.5,0,1,1,17.83,2.2a1,1,0,0,0,.34-2A15.5,15.5,0,1,0,15.5,31a15.77,15.77,0,0,0,1.61-.08,1,1,0,1,0-.21-2Z"/><path d="M25.27,6.19a13.5,13.5,0,0,1-.47,19.09,1,1,0,0,0,1.38,1.45,15.5,15.5,0,0,0,.54-21.92,1,1,0,0,0-1.45,1.38Z"/><path d="M20.21,11.71l3.5-3.5a1,1,0,0,0-1.41-1.41l-3.5,3.5a1,1,0,1,0,1.41,1.41Z"/><path d="M25.71,18.46a1,1,0,0,0-1.41,0L20.79,22a1,1,0,1,0,1.41,1.41l3.5-3.5A1,1,0,0,0,25.71,18.46Z"/><path d="M18.29,18.71a1,1,0,0,0,1.41,0L26,12.46A1,1,0,0,0,24.54,11l-6.25,6.25A1,1,0,0,0,18.29,18.71Z"/></g></g><text x="0" y="46" fill="#000000" font-size="5px" font-weight="bold" font-family="'Helvetica Neue', Helvetica, Arial-Unicode, Arial, Sans-serif">Created by Makarenko Andrey</text><text x="0" y="51" fill="#000000" font-size="5px" font-weight="bold" font-family="'Helvetica Neue', Helvetica, Arial-Unicode, Arial, Sans-serif">from the Noun Project</text></svg>