<?xml version="1.0" encoding="UTF-8" standalone="no"?>
<svg
   xmlns="http://www.w3.org/2000/svg"
   xmlns:sodipodi="http://sodipodi.sourceforge.net/DTD/sodipodi-0.dtd"
   xmlns:inkscape="http://www.inkscape.org/namespaces/inkscape"
   viewBox="0 0 44 38.75"
   x="0px"
   y="0px"
   version="1.1"
   id="svg3821"
   sodipodi:docname="control.svg"
   inkscape:version="0.92.4 (5da689c313, 2019-01-14)">
  <defs
     id="defs3825" />
  <sodipodi:namedview
     pagecolor="#ffffff"
     bordercolor="#666666"
     borderopacity="1"
     objecttolerance="10"
     gridtolerance="10"
     guidetolerance="10"
     inkscape:pageopacity="0"
     inkscape:pageshadow="2"
     inkscape:window-width="2560"
     inkscape:window-height="1361"
     id="namedview3823"
     showgrid="false"
     inkscape:zoom="15.070968"
     inkscape:cx="12.451187"
     inkscape:cy="15.955304"
     inkscape:window-x="2551"
     inkscape:window-y="-9"
     inkscape:window-maximized="1"
     inkscape:current-layer="svg3821" />
  <g
     data-name="Слой 2"
     id="g3815"
     transform="translate(-0.06635274,4.1138699)">
    <g
       data-name="Your Icon"
       id="g3813">
      <path
         d="M 18.18,3.93 A 15.53,15.53 0 0 0 16,6.33 1.0010245,1.0010245 0 0 0 17.61,7.52 13.58,13.58 0 0 1 19.51,5.43 1,1 0 1 0 18.18,3.94 Z"
         id="path3773"
         inkscape:connector-curvature="0" />
      <path
         d="m 21.3,3.91 a 1,1 0 0 0 0.5,-0.13 13.46,13.46 0 0 1 2.58,-1.14 1,1 0 1 0 -0.61,-1.9 15.31,15.31 0 0 0 -3,1.31 1,1 0 0 0 0.5,1.87 z"
         id="path3775"
         inkscape:connector-curvature="0" />
      <path
         d="m 13,15.5 a 15.45,15.45 0 0 0 0.32,3.14 1,1 0 0 0 1,0.8 h 0.2 a 1,1 0 0 0 0.78,-1.18 13.63,13.63 0 0 1 -0.3,-2.83 1,1 0 0 0 -1,-1 v 0 a 1,1 0 0 0 -1,1.07 z"
         id="path3777"
         inkscape:connector-curvature="0" />
      <path
         d="m 14.33,13.42 a 1,1 0 0 0 1,-0.79 13.57,13.57 0 0 1 0.88,-2.68 1,1 0 1 0 -1.82,-0.82 15.62,15.62 0 0 0 -1,3.08 1,1 0 0 0 0.77,1.19 z"
         id="path3779"
         inkscape:connector-curvature="0" />
      <path
         d="m 40.85,10.06 a 13.44,13.44 0 0 1 0.86,2.69 1,1 0 0 0 1,0.8 h 0.2 a 1,1 0 0 0 0.78,-1.18 15.43,15.43 0 0 0 -1,-3.09 1.0006248,1.0006248 0 0 0 -1.83,0.81 z"
         id="path3781"
         inkscape:connector-curvature="0" />
      <path
         d="m 27.14,2.07 a 13.65,13.65 0 0 1 2.82,0 h 0.11 a 1.0015114,1.0015114 0 0 0 0.11,-2 15.81,15.81 0 0 0 -3.24,0 1,1 0 0 0 -0.94,1.1 1,1 0 0 0 1.14,0.9 z"
         id="path3783"
         inkscape:connector-curvature="0" />
      <path
         d="m 38.58,6.53 a 13.61,13.61 0 0 1 0.87,1.08 1,1 0 1 0 1.62,-1.17 C 40.77,6.02 40.43,5.6 40.07,5.2 A 15.91,15.91 0 0 0 38.92,4 1.0016112,1.0016112 0 0 0 37.57,5.48 13.37,13.37 0 0 1 38.58,6.53 Z"
         id="path3785"
         inkscape:connector-curvature="0" />
      <path
         d="m 32.72,2.68 a 13.49,13.49 0 0 1 2.58,1.16 1,1 0 0 0 1,-1.73 15.49,15.49 0 0 0 -3,-1.33 1,1 0 1 0 -0.62,1.9 z"
         id="path3787"
         inkscape:connector-curvature="0" />
      <path
         d="m 21.68,27.16 a 13.48,13.48 0 0 1 -2.27,-1.67 1.0127438,1.0127438 0 0 0 -1.35,1.51 15.39,15.39 0 0 0 2.61,1.92 1,1 0 0 0 1,-1.73 z"
         id="path3789"
         inkscape:connector-curvature="0" />
      <path
         d="m 42.13,20.54 a 1,1 0 0 0 -1.32,0.5 13.4,13.4 0 0 1 -1.42,2.44 1,1 0 1 0 1.61,1.18 15.45,15.45 0 0 0 1.63,-2.8 1,1 0 0 0 -0.5,-1.32 z"
         id="path3791"
         inkscape:connector-curvature="0" />
      <path
         d="m 27,28.92 a 13.65,13.65 0 0 1 -2.76,-0.6 1,1 0 1 0 -0.62,1.9 15.69,15.69 0 0 0 3.16,0.69 h 0.11 a 1.0015114,1.0015114 0 0 0 0.11,-2 z"
         id="path3793"
         inkscape:connector-curvature="0" />
      <path
         d="m 37.47,25.59 a 13.62,13.62 0 0 1 -2.29,1.65 1.0034441,1.0034441 0 1 0 1,1.74 15.68,15.68 0 0 0 2.66,-1.92 l -0.66,-0.75 0.67,0.74 a 1,1 0 0 0 0.06,-1.4 1,1 0 0 0 -1.44,-0.06 z"
         id="path3795"
         inkscape:connector-curvature="0" />
      <path
         d="m 43,14.56 v 0 a 1,1 0 0 0 -1,1 13.62,13.62 0 0 1 -0.3,2.81 1,1 0 0 0 0.77,1.19 h 0.21 a 1,1 0 0 0 1,-0.79 15.58,15.58 0 0 0 0.32,-3.21 1,1 0 0 0 -1,-1 z"
         id="path3797"
         inkscape:connector-curvature="0" />
      <path
         d="m 32.59,28.37 a 13.47,13.47 0 0 1 -2.76,0.57 1.0012492,1.0012492 0 0 0 0.1,2 H 30 a 15.43,15.43 0 0 0 3.17,-0.65 1.0025218,1.0025218 0 1 0 -0.61,-1.91 z"
         id="path3799"
         inkscape:connector-curvature="0" />
      <path
         d="m 15.91,24.55 a 1,1 0 1 0 1.62,-1.17 13.4,13.4 0 0 1 -1.4,-2.45 1,1 0 0 0 -1.83,0.8 15.48,15.48 0 0 0 1.61,2.82 z"
         id="path3801"
         inkscape:connector-curvature="0" />
      <path
         d="M 16.9,28.93 A 13.71,13.71 0 0 1 15.5,29 13.5,13.5 0 1 1 17.83,2.2 1.0143471,1.0143471 0 0 0 18.17,0.2 15.5,15.5 0 1 0 15.5,31 a 15.77,15.77 0 0 0 1.61,-0.08 1.0054974,1.0054974 0 1 0 -0.21,-2 z"
         id="path3803"
         inkscape:connector-curvature="0" />
      <path
         d="M 25.27,6.19 A 13.5,13.5 0 0 1 24.8,25.28 1.0008621,1.0008621 0 0 0 26.18,26.73 15.5,15.5 0 0 0 26.72,4.81 1.0008621,1.0008621 0 0 0 25.27,6.19 Z"
         id="path3805"
         inkscape:connector-curvature="0" />
      <path
         d="m 20.21,11.71 3.5,-3.5 A 1,1 0 0 0 22.3,6.8 l -3.5,3.5 a 1,1 0 1 0 1.41,1.41 z"
         id="path3807"
         inkscape:connector-curvature="0" />
      <path
         d="m 25.71,18.46 a 1,1 0 0 0 -1.41,0 L 20.79,22 a 1,1 0 1 0 1.41,1.41 l 3.5,-3.5 a 1,1 0 0 0 0.01,-1.45 z"
         id="path3809"
         inkscape:connector-curvature="0" />
      <path
         d="m 18.29,18.71 a 1,1 0 0 0 1.41,0 L 26,12.46 A 1.0323759,1.0323759 0 0 0 24.54,11 l -6.25,6.25 a 1,1 0 0 0 0,1.46 z"
         id="path3811"
         inkscape:connector-curvature="0" />
    </g>
  </g>
</svg>
