<?xml version="1.0" encoding="UTF-8" standalone="no"?>
<!-- Created with Inkscape (http://www.inkscape.org/) -->

<svg
   xmlns:dc="http://purl.org/dc/elements/1.1/"
   xmlns:cc="http://creativecommons.org/ns#"
   xmlns:rdf="http://www.w3.org/1999/02/22-rdf-syntax-ns#"
   xmlns:svg="http://www.w3.org/2000/svg"
   xmlns="http://www.w3.org/2000/svg"
   xmlns:sodipodi="http://sodipodi.sourceforge.net/DTD/sodipodi-0.dtd"
   xmlns:inkscape="http://www.inkscape.org/namespaces/inkscape"
   width="300mm"
   height="300mm"
   viewBox="0 0 300 300"
   version="1.1"
   id="svg8"
   inkscape:version="0.92.2 (5c3e80d, 2017-08-06)"
   sodipodi:docname="snapTumorToPlane.svg">
  <defs
     id="defs2">
    <marker
       inkscape:isstock="true"
       style="overflow:visible"
       id="Arrow2Mstart"
       refX="0"
       refY="0"
       orient="auto"
       inkscape:stockid="Arrow2Mstart">
      <path
         inkscape:connector-curvature="0"
         transform="scale(0.6)"
         d="M 8.7185878,4.0337352 -2.2072895,0.01601326 8.7185884,-4.0017078 c -1.7454984,2.3720609 -1.7354408,5.6174519 -6e-7,8.035443 z"
         style="fill:#000000;fill-opacity:1;fill-rule:evenodd;stroke:#000000;stroke-width:0.625;stroke-linejoin:round;stroke-opacity:1"
         id="path4685" />
    </marker>
    <marker
       inkscape:isstock="true"
       style="overflow:visible"
       id="Arrow1Lstart"
       refX="0"
       refY="0"
       orient="auto"
       inkscape:stockid="Arrow1Lstart">
      <path
         inkscape:connector-curvature="0"
         transform="matrix(0.8,0,0,0.8,10,0)"
         style="fill:#000000;fill-opacity:1;fill-rule:evenodd;stroke:#000000;stroke-width:1.00000003pt;stroke-opacity:1"
         d="M 0,0 5,-5 -12.5,0 5,5 Z"
         id="path4661" />
    </marker>
    <marker
       inkscape:isstock="true"
       style="overflow:visible"
       id="Arrow2Mstart-9"
       refX="0"
       refY="0"
       orient="auto"
       inkscape:stockid="Arrow2Mstart">
      <path
         transform="scale(0.6)"
         d="M 8.7185878,4.0337352 -2.2072895,0.01601326 8.7185884,-4.0017078 c -1.7454984,2.3720609 -1.7354408,5.6174519 -6e-7,8.035443 z"
         style="fill:#000000;fill-opacity:1;fill-rule:evenodd;stroke:#000000;stroke-width:0.625;stroke-linejoin:round;stroke-opacity:1"
         id="path4685-6"
         inkscape:connector-curvature="0" />
    </marker>
  </defs>
  <sodipodi:namedview
     id="base"
     pagecolor="#ffffff"
     bordercolor="#666666"
     borderopacity="1.0"
     inkscape:pageopacity="0.0"
     inkscape:pageshadow="2"
     inkscape:zoom="0.35"
     inkscape:cx="155.3607"
     inkscape:cy="381.71497"
     inkscape:document-units="mm"
     inkscape:current-layer="layer1-5"
     showgrid="false"
     inkscape:window-width="1920"
     inkscape:window-height="1017"
     inkscape:window-x="1912"
     inkscape:window-y="-8"
     inkscape:window-maximized="1" />
  <metadata
     id="metadata5">
    <rdf:RDF>
      <cc:Work
         rdf:about="">
        <dc:format>image/svg+xml</dc:format>
        <dc:type
           rdf:resource="http://purl.org/dc/dcmitype/StillImage" />
        <dc:title></dc:title>
      </cc:Work>
    </rdf:RDF>
  </metadata>
  <g
     inkscape:label="Ebene 1"
     inkscape:groupmode="layer"
     id="layer1"
     transform="translate(0,3)">
    <g
       transform="matrix(1.1410415,0,0,1.1410415,63.554742,211.26317)"
       id="layer1-5"
       inkscape:label="Layer 1">
      <path
         inkscape:connector-curvature="0"
         id="path3854"
         d="m 42.882196,-164.19807 v 64.434305 l 0,36.97582"
         style="fill:none;stroke:#000000;stroke-width:4.6246047;stroke-linecap:butt;stroke-linejoin:miter;stroke-miterlimit:4;stroke-dasharray:none;stroke-opacity:1;marker-start:url(#Arrow2Mstart)"
         sodipodi:nodetypes="ccc" />
      <path
         sodipodi:nodetypes="cc"
         inkscape:connector-curvature="0"
         id="path3854-2"
         d="m 174.66208,-23.037294 -68.84135,0"
         style="fill:none;stroke:#000000;stroke-width:4.6246047;stroke-linecap:butt;stroke-linejoin:miter;stroke-miterlimit:4;stroke-dasharray:none;stroke-opacity:1;marker-start:url(#Arrow2Mstart-9)" />
    </g>
    <g
       id="g3703"
       transform="matrix(0.15276468,0,0,0.15960373,39.908688,102.34882)"
       style="opacity:1;fill:#000000;fill-opacity:1">
      <path
         id="path3701"
         d="m 948.4,213.8 c -27.8,21.6 -75.7,6.4 -106.9,-33.8 -31.2,-40.2 -33.9,-90.3 -6.1,-111.9 27.8,-21.6 75.7,-6.4 106.9,33.8 31.3,40.2 34,90.3 6.1,111.9 z M 950,252 c 0,0 2.5,18.8 -2.5,45 0,0 -191.9,156.9 -352.5,129.9 C 422.6,398 347.4,237.5 340,124.4 c 0,0 17,-44.3 78.6,-77.7 73.4,-39.7 204.8,-64 373.9,20.2 0,0 -40,56.9 5.1,123.7 38.8,57.5 91.9,74.7 152.4,61.4 z M 682.5,166.9 c -2.6,-50.7 -43.7,-87.2 -94.7,-78.3 -51,9 -87.9,50 -85.4,93.3 2.6,43.2 43.7,72.3 94.7,63.3 51,-9 87.6,-35 85.4,-78.3 z M 596.3,211 c -28.3,4.8 -52.3,-10 -53.7,-33 -1.4,-23 20.3,-45.5 48.6,-50.2 28.3,-4.8 52.3,10 53.7,33 1.4,23 -20.4,45.5 -48.6,50.2 z M 302.4,116.9 c 0,0 -53.8,25 -85,57.5 0,0 -45,-8.8 -117.5,60 0,0 -15.1,-50.9 10.8,-106.5 33.7,-71.9 121.1,-146.6 241.7,-76.1 0,0.1 -31.2,10.1 -50,65.1 z M 142.9,249 c 42.8,-36.5 89.5,-42.1 89.5,-42.1 40.3,83.7 60.6,171.9 -9.7,259.5 C 178,522.2 89.9,507 89.9,507 33.4,391.9 85.7,297.8 142.9,249 Z m 33.7,445.2 C 187,752.5 159.9,824.5 159.9,824.5 81.2,831.1 16.1,803.9 10.1,700.7 7,646.8 54.8,604.5 54.8,604.5 c 76.9,6.2 113.2,41.7 121.8,89.7 z M 82.4,572 l 5,-27.5 C 143.3,552 240.2,551.6 291.9,425.1 339.1,309.6 265,187 265,187 l 40,-27.5 c 18.5,88.5 80.3,255.6 250,300 C 738.5,507.5 937.5,352 937.5,352 l 2.5,35 C 872.8,421.1 784.4,475.5 730.2,602.1 673.5,734.2 690,892 690,892 l -25,2.5 C 666.8,742.6 572.9,610.9 425,632 260.5,655.5 225,854.5 225,854.5 l -25,-25 C 216.4,773.9 235.4,713 203.5,652.1 170.5,589.4 82.4,572 82.4,572 Z m 212.5,10 c 21.4,36.1 81.6,46.1 132.5,15 50.9,-31.1 63.9,-83.9 42.5,-120 -21.4,-36.1 -86.6,-48.6 -137.5,-17.5 -50.9,31.1 -58.9,86.4 -37.5,122.5 z m 62.2,-90.2 c 31.1,-17.8 66.9,-15.5 80,5.3 13.1,20.7 -1.5,52 -32.6,69.8 -31.1,17.8 -66.9,15.5 -80,-5.3 -13.1,-20.7 1.5,-51.9 32.6,-69.8 z m 102.8,174 C 636.7,691 625.4,873 627.5,922 c 0,0 -55.7,51.1 -134.7,64.3 C 412,999.7 307.4,974.2 254.9,887 c 0,0 19.4,-220.1 205,-221.2 z M 947.5,424.5 C 994.6,505.6 1017.7,619.1 934.9,765 859.3,898.3 732.4,904.5 732.4,904.5 724.6,825.8 730.7,675.5 783.6,579 841.7,473.2 947.5,424.5 947.5,424.5 Z"
         inkscape:connector-curvature="0"
         style="fill:#000000;fill-opacity:1" />
    </g>
  </g>
</svg>
