<?xml version="1.0" encoding="utf-8"?>
<!-- Svg Vector Icons : http://www.onlinewebfonts.com/icon -->
<!DOCTYPE svg PUBLIC "-//W3C//DTD SVG 1.1//EN" "http://www.w3.org/Graphics/SVG/1.1/DTD/svg11.dtd">
<svg version="1.1" xmlns="http://www.w3.org/2000/svg" xmlns:xlink="http://www.w3.org/1999/xlink" x="0px" y="0px" viewBox="0 0 1000 1000" enable-background="new 0 0 1000 1000" xml:space="preserve">
<metadata> Svg Vector Icons : http://www.onlinewebfonts.com/icon </metadata>
<g><path d="M948.4,213.8c-27.8,21.6-75.7,6.4-106.9-33.8c-31.2-40.2-33.9-90.3-6.1-111.9c27.8-21.6,75.7-6.4,106.9,33.8C973.6,142.1,976.3,192.2,948.4,213.8z M950,252c0,0,2.5,18.8-2.5,45c0,0-191.9,156.9-352.5,129.9c-172.4-28.9-247.6-189.4-255-302.5c0,0,17-44.3,78.6-77.7c73.4-39.7,204.8-64,373.9,20.2c0,0-40,56.9,5.1,123.7C836.4,248.1,889.5,265.3,950,252z M682.5,166.9c-2.6-50.7-43.7-87.2-94.7-78.3c-51,9-87.9,50-85.4,93.3c2.6,43.2,43.7,72.3,94.7,63.3S684.7,210.2,682.5,166.9z M596.3,211c-28.3,4.8-52.3-10-53.7-33c-1.4-23,20.3-45.5,48.6-50.2c28.3-4.8,52.3,10,53.7,33C646.3,183.8,624.5,206.3,596.3,211z M302.4,116.9c0,0-53.8,25-85,57.5c0,0-45-8.8-117.5,60c0,0-15.1-50.9,10.8-106.5c33.7-71.9,121.1-146.6,241.7-76.1C352.4,51.9,321.2,61.9,302.4,116.9z M142.9,249c42.8-36.5,89.5-42.1,89.5-42.1c40.3,83.7,60.6,171.9-9.7,259.5C178,522.2,89.9,507,89.9,507C33.4,391.9,85.7,297.8,142.9,249z M176.6,694.2c10.4,58.3-16.7,130.3-16.7,130.3c-78.7,6.6-143.8-20.6-149.8-123.8c-3.1-53.9,44.7-96.2,44.7-96.2C131.7,610.7,168,646.2,176.6,694.2z M82.4,572l5-27.5c55.9,7.5,152.8,7.1,204.5-119.4c47.2-115.5-26.9-238.1-26.9-238.1l40-27.5c18.5,88.5,80.3,255.6,250,300C738.5,507.5,937.5,352,937.5,352l2.5,35c-67.2,34.1-155.6,88.5-209.8,215.1C673.5,734.2,690,892,690,892l-25,2.5c1.8-151.9-92.1-283.6-240-262.5c-164.5,23.5-200,222.5-200,222.5l-25-25c16.4-55.6,35.4-116.5,3.5-177.4C170.5,589.4,82.4,572,82.4,572z M294.9,582c21.4,36.1,81.6,46.1,132.5,15c50.9-31.1,63.9-83.9,42.5-120c-21.4-36.1-86.6-48.6-137.5-17.5S273.5,545.9,294.9,582z M357.1,491.8c31.1-17.8,66.9-15.5,80,5.3c13.1,20.7-1.5,52-32.6,69.8c-31.1,17.8-66.9,15.5-80-5.3C311.4,540.9,326,509.7,357.1,491.8z M459.9,665.8C636.7,691,625.4,873,627.5,922c0,0-55.7,51.1-134.7,64.3C412,999.7,307.4,974.2,254.9,887C254.9,887,274.3,666.9,459.9,665.8z M947.5,424.5c47.1,81.1,70.2,194.6-12.6,340.5c-75.6,133.3-202.5,139.5-202.5,139.5c-7.8-78.7-1.7-229,51.2-325.5C841.7,473.2,947.5,424.5,947.5,424.5z"/></g>
</svg>